# xmcd
#
# Track frame offsets: 
#        150
#        13477
#        25985
#        41837
#        56440
#        72175
#        83782
#        98002
#        111427
#        127977
#        142820
#        155035
#        170615
#        185942
#        203100
#
# Disc length: 2873 seconds
#
# Revision: 0
# Processed by: cddbd v1.5.1PL0 Copyright (c) Steve Scherf et al.
# Submitted via: ExactAudioCopy v0.95a5
#
DISCID=d70b370f
DTITLE=Various Artist - At Last! A Brand New Christmas CD
DYEAR=1998
DGENRE=Christmas/Holiday
TTITLE0=Dusty Drake - It's Christmas For Christ's Sake
TTITLE1=Dusty Drake - Our First Christmas Together
TTITLE2=Kenny Royster - Santa Wants A Christmas Too
TTITLE3=Barb Christy - Christmas Is!
TTITLE4=Jason Allan Whitmore, Frankie Stanton, Pal Rakes, Bob Feldman 
TTITLE4=/ A Christmas Hymn To Him
TTITLE5=Johnny Mathis - Long Winter Nights
TTITLE6=Kristen Gartner - Another Holiday Without You
TTITLE7=Bob Feldman - Another Holiday Without You (Original Basement D
TTITLE7=emo)
TTITLE8=Kenny Royster - Santa Wants A Harley
TTITLE9=Jim Counter - Santa, Do You Like Rich Kids More?
TTITLE10=Jessie Lee Goldberg - Christmas Lights
TTITLE11=Barb Christy - Another Silent Night
TTITLE12=Davido - Christmas In New York
TTITLE13=Barb Christy - Santa, Can I Ride My Bike In Heaven?
TTITLE14=Robert Vega and The Nashville Kids Connection - Merry Christmas
TTITLE14=To You
EXTD=
EXTT0=
EXTT1=
EXTT2=
EXTT3=
EXTT4=
EXTT5=
EXTT6=
EXTT7=
EXTT8=
EXTT9=
EXTT10=
EXTT11=
EXTT12=
EXTT13=
EXTT14=
PLAYORDER=
